<svg id="Layer_1" data-name="Layer 1" xmlns="http://www.w3.org/2000/svg" viewBox="0 0 224 60"><defs><style>.cls-1{fill:#172066;}.cls-2{fill:#72add7;}.cls-3{fill:#fff;}</style></defs><title>Artboard 1</title><g id="international"><path class="cls-1" d="M69.8,35.8v6.6H68.7V35.8Z"/><path class="cls-1" d="M82.4,35.8h1.1v6.6h-.9L79,37.7v4.7H77.9V35.8h1l3.4,4.5.1-4.5Z"/><path class="cls-1" d="M94.2,42.4H93.1V36.9h-2V35.8h5.2v1.1h-2l-.1,5.5Z"/><path class="cls-1" d="M108.6,36.9H105v1.7h3.2v1H105v1.8h3.7v1h-4.8V35.8h4.7Z"/><path class="cls-1" d="M120.5,42.4l-1.6-2.3h-1.4v2.3h-1.1V35.8h2.9a3.08,3.08,0,0,1,1,.1,3,3,0,0,1,.8.4,1.79,1.79,0,0,1,.5.7,2.39,2.39,0,0,1,.2.9,1.48,1.48,0,0,1-.1.7l-.3.6a1,1,0,0,1-.5.4l-.6.3,1.7,2.5Zm-.3-5.3a1.49,1.49,0,0,0-1-.3h-1.6V39h1.7a1.69,1.69,0,0,0,1-.3,1.23,1.23,0,0,0,.4-.8A5.58,5.58,0,0,0,120.2,37.1Z"/><path class="cls-1" d="M133.9,35.8H135v6.6h-.9l-3.5-4.7v4.7h-1.1V35.8h1l3.4,4.5V35.8Z"/><path class="cls-1" d="M149.2,42.4H148l-.7-1.6h-3l-.7,1.6h-1.2l2.8-6.6h1Zm-3.4-5.3-1.1,2.6h2.2Z"/><path class="cls-1" d="M158.6,42.4h-1.1V36.9h-2V35.8h5.2v1.1h-2l-.1,5.5Z"/><path class="cls-1" d="M169.4,35.8v6.6h-1.1V35.8Z"/><path class="cls-1" d="M183.7,40.4a4.13,4.13,0,0,1-.7,1.1,2.59,2.59,0,0,1-1.1.7,3.19,3.19,0,0,1-1.4.3,3.53,3.53,0,0,1-1.4-.3,3,3,0,0,1-1.8-1.8,2.74,2.74,0,0,1-.2-1.3,5.07,5.07,0,0,1,.2-1.3,4.13,4.13,0,0,1,.7-1.1,2.59,2.59,0,0,1,1.1-.7,3.19,3.19,0,0,1,1.4-.3,3.53,3.53,0,0,1,1.4.3,3,3,0,0,1,1.8,1.8,2.74,2.74,0,0,1,.2,1.3A2,2,0,0,1,183.7,40.4Zm-1.1-2.2a4.35,4.35,0,0,0-.4-.7,1.79,1.79,0,0,0-.7-.5,2.13,2.13,0,0,0-1.8,0,1.79,1.79,0,0,0-.7.5,2.51,2.51,0,0,0-.4.7,2.12,2.12,0,0,0,0,1.8,4.35,4.35,0,0,0,.4.7,1.79,1.79,0,0,0,.7.5,2.13,2.13,0,0,0,1.8,0,1.79,1.79,0,0,0,.7-.5,2.51,2.51,0,0,0,.4-.7,2.13,2.13,0,0,0,0-1.8Z"/><path class="cls-1" d="M196.2,35.8h1.1v6.6h-.9l-3.5-4.7v4.7h-1.1V35.8h1l3.4,4.5V35.8Z"/><path class="cls-1" d="M211.5,42.4h-1.2l-.6-1.6h-3l-.7,1.6h-1.2l2.8-6.6h1Zm-3.4-5.3L207,39.7h2.2Z"/><path class="cls-1" d="M219,35.8h1.1v5.5h3.4v1H219Z"/></g><g id="primary"><path class="cls-2" d="M52.3,17.9a69.43,69.43,0,0,0-23.8,14c-7,1.9-20.2,12-20.2,12,1-2.2,4.8-8.9,16.2-18.8a56.34,56.34,0,0,1,27.8-7.2Z"/><path class="cls-2" d="M58.6,35c-3.8,1.6-8.3,4.7-12.9,8.1h0c-7.4,2.1-24.7,11.5-27.5,13,1-1.3,5.2-6.5,10.8-12.3a6.47,6.47,0,0,0,.8-.9h0a38.27,38.27,0,0,1,4.9-2c.1,0,.2-.1.3-.1s.2-.1.3-.1.2-.1.3-.1.2-.1.4-.1.3-.1.5-.2.2-.1.3-.1c.3-.1.5-.2.8-.3,1.1-.3,2.2-.7,3.3-1,.1,0,.2-.1.3-.1,1.6-.4,3.2-.9,4.7-1.2a.37.37,0,0,0,.3-.1c.5-.1,1.1-.3,1.6-.4s1.2-.3,1.8-.4c.1,0,.3-.1.4-.1s.3-.1.4-.1.3-.1.5-.1a.37.37,0,0,0,.3-.1h.1c.2-.1.5-.1.7-.2h.5c.2,0,.3-.1.5-.1h.2c.2,0,.4-.1.6-.1h.1a22252550768714.9,22252550768714.9,0,0,1,.6-.2.37.37,0,0,0,.3-.1,5.16,5.16,0,0,1,1.1-.2h.2c.5-.1.9-.2,1.3-.3h.2a4.33,4.33,0,0,0,.5-.1h.5Z"/><path class="cls-2" d="M20.1,10.6,37,0,18.2,7.1S14.1,1.4,12.1,2h0a.78.78,0,0,0-.4.3h0a3,3,0,0,0-.2,1c0,2.4,2.5,6.5,2.5,6.5L0,24.2,16.2,12.9l1.5,1.9L13,19.5l6.3-3.9L21,16l.2-1.9,6.1-3.5-6.4,2.1Z"/></g><path class="cls-3" d="M18.2,56.1l.1.1Z"/><path class="cls-1" d="M58.7,35a21.81,21.81,0,0,1-.9,6.3c-8,2.9-26.3,16.5-29.4,18.7h0a11.63,11.63,0,0,1-1.8-.4A235.26,235.26,0,0,1,45.8,43.1h0A72.26,72.26,0,0,1,58.7,35Z"/><g id="seconday"><path class="cls-1" d="M43.1,11.3A181.8,181.8,0,0,0,24.4,25.2C13,35.1,9.2,41.8,8.2,44a26.27,26.27,0,0,1-1.4-5,29.86,29.86,0,0,1-.4-4.3,26,26,0,0,1,.3-4A55.54,55.54,0,0,1,40,10.2,28.27,28.27,0,0,1,43.1,11.3Z"/><path class="cls-1" d="M56.7,25a20.22,20.22,0,0,0-7.8,2.7c-.1.1-.2.1-.3.2a68.51,68.51,0,0,0-11,7.9c-.4.4-.9.7-1.3,1.1-1.1,1-2.2,2-3.3,3.1l-.8.8h0l-.8.8-1.5,1.5h0a6.47,6.47,0,0,0-.8.9c-5.6,5.8-9.8,11.1-10.8,12.3l-.1-.1a27.29,27.29,0,0,1-5.7-5c-.1-.1-.2-.3-.4-.4A93.59,93.59,0,0,1,28.4,32.1a69.74,69.74,0,0,1,23.8-14c.2.3.5.5.7.8A19.06,19.06,0,0,1,56.7,25Z"/></g><g id="lize"><path class="cls-2" d="M97.5,20.2v3.3h5.3v1.9H97.5v3.5h6.8v2H95.2V18.2h9.1v2Z"/><path class="cls-2" d="M68.7,18.2H71V28.9h6.5v2H68.7Z"/><path class="cls-2" d="M79.2,18.2h2.3V30.9H79.2Z"/><path class="cls-2" d="M93.5,28.9H86.2l7.3-9.1V18.2H83.2v2h7.3l-7.3,9.1v1.6H93.8v-2Z"/><path class="cls-2" d="M114.6,20.2h-4.1v-2H121v2h-4.1V30.9h-2.3Z"/><path class="cls-2" d="M130.9,30.9l-2.5-3.7h-3.3v3.7h-2.3V18.2h5.1a7.78,7.78,0,0,1,2.8.5,4,4,0,0,1,1.8,1.6,4.75,4.75,0,0,1,.6,2.4,4.09,4.09,0,0,1-.7,2.5,3.82,3.82,0,0,1-2,1.5l2.9,4.2Zm-.8-10.1a3.7,3.7,0,0,0-2.3-.7h-2.7v5.1h2.7a3.17,3.17,0,0,0,2.3-.7,2.41,2.41,0,0,0,.8-1.9A3,3,0,0,0,130.1,20.8Z"/><path class="cls-2" d="M143.8,27.9h-6.2l-1.2,2.9H134l5.6-12.7h2.3l5.6,12.7H145Zm-.8-1.8-2.3-5.5-2.3,5.5Z"/><path class="cls-2" d="M160,18.2V30.9h-1.9l-6.8-8.6v8.6H149V18.2h1.9l6.8,8.6V18.2Z"/><path class="cls-2" d="M164.4,30.6a5.2,5.2,0,0,1-2.1-1.1l.8-1.8a6.74,6.74,0,0,0,1.9,1,5.7,5.7,0,0,0,2.2.4,4.06,4.06,0,0,0,2.1-.5,1.31,1.31,0,0,0,.7-1.2,1,1,0,0,0-.4-.9,8.79,8.79,0,0,0-1-.6c-.4-.1-.9-.3-1.6-.5a21.9,21.9,0,0,1-2.3-.7,3.27,3.27,0,0,1-1.5-1.1,3.17,3.17,0,0,1-.6-2,3.29,3.29,0,0,1,.6-1.9,4,4,0,0,1,1.7-1.4,6.1,6.1,0,0,1,2.8-.5,7.8,7.8,0,0,1,2.2.3,8.35,8.35,0,0,1,1.9.8L171,21a5.09,5.09,0,0,0-1.7-.7,12.23,12.23,0,0,0-1.7-.3,3.44,3.44,0,0,0-2,.5,1.56,1.56,0,0,0-.7,1.3,1,1,0,0,0,.4.9,3.13,3.13,0,0,0,1,.5c.4.1.9.3,1.6.5a10.49,10.49,0,0,1,2.3.7,3.27,3.27,0,0,1,1.5,1.1,3,3,0,0,1,.6,2,3.29,3.29,0,0,1-.6,1.9,4,4,0,0,1-1.7,1.4,7.78,7.78,0,0,1-2.8.5A22.91,22.91,0,0,1,164.4,30.6Z"/><path class="cls-2" d="M182.4,18.7a4,4,0,0,1,1.8,1.6,5.1,5.1,0,0,1,0,4.8,4,4,0,0,1-1.8,1.6,6.1,6.1,0,0,1-2.8.5h-2.8v3.7h-2.3V18.2h5.1A7.78,7.78,0,0,1,182.4,18.7Zm-.6,5.9a2.41,2.41,0,0,0,.8-1.9,2.56,2.56,0,0,0-.8-1.9,3.7,3.7,0,0,0-2.3-.7h-2.7v5h2.7A3.17,3.17,0,0,0,181.8,24.6Z"/><path class="cls-2" d="M189.8,30.2a6.62,6.62,0,0,1-2.4-2.3,6.5,6.5,0,0,1,0-6.6,5.89,5.89,0,0,1,2.4-2.3,6.57,6.57,0,0,1,3.4-.8,7.42,7.42,0,0,1,3.4.8,6.62,6.62,0,0,1,2.4,2.3,6.4,6.4,0,0,1,.9,3.4,6.65,6.65,0,0,1-.9,3.4,5.89,5.89,0,0,1-2.4,2.3,6.57,6.57,0,0,1-3.4.8A7.52,7.52,0,0,1,189.8,30.2Zm5.6-1.8a4.1,4.1,0,0,0,1.6-1.6,4.38,4.38,0,0,0,.6-2.3,4.65,4.65,0,0,0-.6-2.3,4.1,4.1,0,0,0-1.6-1.6,4.28,4.28,0,0,0-2.2-.6,4,4,0,0,0-2.2.6,4.1,4.1,0,0,0-1.6,1.6,4.38,4.38,0,0,0-.6,2.3,4.65,4.65,0,0,0,.6,2.3,4.1,4.1,0,0,0,1.6,1.6,4.33,4.33,0,0,0,4.4,0Z"/><path class="cls-2" d="M209.9,30.9l-2.5-3.7h-3.3v3.7h-2.3V18.2h5.1a7.78,7.78,0,0,1,2.8.5,4,4,0,0,1,1.8,1.6,4.75,4.75,0,0,1,.6,2.4,4.09,4.09,0,0,1-.7,2.5,3.82,3.82,0,0,1-2,1.5l2.9,4.2Zm-.8-10.1a3.7,3.7,0,0,0-2.3-.7h-2.7v5.1h2.7a3.17,3.17,0,0,0,2.3-.7,2.41,2.41,0,0,0,.8-1.9A3,3,0,0,0,209.1,20.8Z"/><path class="cls-2" d="M217.1,20.2H213v-2h10.5v2h-4.1V30.9h-2.3V20.2Z"/></g></svg>