<svg width="121" height="117" viewBox="0 0 121 117" fill="none" xmlns="http://www.w3.org/2000/svg">
<g clip-path="url(#clip0_22_129)">
<path d="M31.0557 39.7267C30.7903 39.6381 35.8335 22.435 36.1874 20.6614C36.3643 19.7747 36.4528 17.5578 37.2491 16.9371C37.7799 16.4937 40.7882 16.671 41.319 16.5824C44.3272 16.0503 47.1585 15.0749 50.0782 14.2768C64.7654 10.109 79.9835 8.51288 95.2015 7.00539C102.103 6.29598 109.004 6.20731 115.905 5.4979L118.382 5.1432C119.002 5.58658 118.913 4.34512 118.382 5.40923C117.94 6.38466 114.489 7.36009 113.428 7.80347C110.42 8.95626 107.234 9.75434 104.226 10.9958C97.2365 13.7447 89.9814 15.6069 82.8147 18.0012C76.3559 20.2181 69.8086 22.435 63.3498 24.6519C59.6338 25.982 55.8292 26.9574 52.1132 28.1989C48.928 29.263 45.4774 29.8837 42.3807 31.1252C39.7264 32.1893 38.2223 33.6081 36.0104 35.3816C33.4446 37.5985 30.7903 39.4607 28.4899 41.9436C28.2244 42.2096 28.4014 42.387 28.7553 42.387C28.8438 42.387 28.9322 42.387 29.0207 42.387C29.4631 42.387 30.2594 41.7663 29.4631 41.7663C30.7018 41.7663 32.5598 39.106 33.3561 38.3966C34.6832 37.1551 36.2758 36.2684 37.603 35.0269C41.319 31.7459 45.389 31.1252 49.9898 29.6177C57.6873 27.0461 65.5617 24.9179 73.1707 22.1689C81.8415 19.0653 90.6007 16.405 99.3599 13.5674C103.253 12.2373 107.146 10.5524 111.039 9.31096C114.401 8.15817 117.586 6.91671 120.417 4.87717C120.86 4.61115 120.506 4.34512 120.152 4.34512C115.286 4.61115 110.42 5.58658 105.465 5.85261C100.776 6.02996 96.0863 6.38466 91.3085 6.91672C81.2221 7.89215 71.2242 9.04493 61.3148 11.0845C56.2716 12.1486 51.4054 13.4787 46.4507 14.8975C43.4425 15.7843 40.6997 16.0503 37.603 16.4937C37.0721 16.5824 36.7182 16.405 36.1874 16.7597C35.3026 17.2918 35.3026 19.154 35.1256 19.952C34.5948 22.0803 34.1524 24.2972 33.6215 26.4254C32.4713 30.9478 29.9055 35.6476 29.6401 40.2588C29.6401 40.4361 29.7285 40.4361 29.9055 40.5248C29.994 40.5248 30.1709 40.6135 30.2594 40.6135C30.7018 40.5248 31.675 39.9041 31.0557 39.7267Z" fill="white" stroke="white" stroke-width="2"/>
<path d="M119.09 4.52246C118.029 4.87716 117.409 5.76392 116.613 6.47332C114.932 8.15816 113.074 9.57697 111.305 11.0845C108.031 13.8334 104.492 16.2276 101.13 18.8879C93.1667 25.0952 85.2923 31.3912 76.71 36.8004C69.0125 41.6776 60.7841 45.1359 53.6175 50.7225C53.0866 51.1659 52.2019 52.1413 51.4056 51.7866C50.6978 51.5206 49.9015 49.0377 49.5476 48.1509C48.6628 46.1114 47.8665 43.9831 47.1587 41.8549C45.92 38.2192 44.9468 34.0515 42.4694 31.0365C42.2925 30.7705 41.4962 30.9478 41.4077 31.2138C41.3192 31.3025 41.3192 31.3912 41.2307 31.4799C40.9653 31.9232 42.1155 31.8346 42.2925 31.4799C42.3809 31.3912 42.3809 31.3025 42.4694 31.2138C42.1155 31.3025 41.7616 31.3912 41.4077 31.3912C44.5044 35.1156 45.4776 40.7908 47.1587 45.2246C47.778 46.9094 49.1052 52.496 51.4941 52.6734C53.529 52.8507 56.0949 49.7471 57.599 48.5943C62.1998 45.2246 67.3314 43.0077 72.2861 40.1701C80.8684 35.2929 88.9198 29.3517 96.7058 23.233C100.687 20.1294 104.669 17.1144 108.739 14.0994C110.685 12.6806 112.543 11.0845 114.313 9.4883C115.728 8.24684 117.852 5.49789 119.621 4.87716C120.241 4.69981 119.621 4.34511 119.09 4.52246Z" fill="white" stroke="white" stroke-width="2"/>
<path d="M29.463 42.3869C34.2407 40.0814 39.7263 39.2833 44.3271 36.623C45.0349 36.2683 43.9732 36.091 43.6193 36.2683C39.107 38.8399 33.7099 39.638 29.0206 41.9436C28.3128 42.2983 28.9321 42.653 29.463 42.3869Z" fill="white" stroke="white" stroke-width="2"/>
<path d="M29.8169 42.0324C30.3478 39.9041 30.7902 37.7759 31.321 35.6477C31.4095 35.2043 30.2593 35.3817 30.1708 35.8251C29.64 37.9533 29.1976 40.0815 28.6667 42.2097C28.5782 42.6531 29.7284 42.4757 29.8169 42.0324Z" fill="white"/>
<path d="M119.709 3.99041C115.728 3.281 111.569 3.81306 107.5 3.90173C102.633 3.99041 97.7671 3.6357 92.9008 3.45835C82.9914 3.10365 73.082 2.5716 63.1726 1.86219C53.5286 1.24146 43.8846 0.443379 34.1521 0.266027C30.2591 0.177352 26.1892 -0.177351 22.2962 0.266027C19.8188 0.62073 16.6337 0.798082 14.3333 1.95087C14.1563 2.03954 13.8024 2.21689 14.1563 2.39424C18.8456 5.14319 22.9155 8.42419 27.3394 11.6165C28.8435 12.7693 30.4361 13.5674 32.1171 14.5428C33.4443 15.2522 34.3291 16.2277 35.8332 16.5824C36.1871 16.671 37.1603 16.139 36.541 15.9616C34.7714 15.5182 31.8517 13.4787 30.3476 12.5033C27.9587 10.9958 25.8353 9.1336 23.7118 7.36008C22.0308 6.02995 20.2612 4.87716 18.4917 3.72438C17.5184 3.10365 15.5719 2.66027 16.8991 1.77351C17.253 1.50749 18.2263 1.59616 18.6686 1.50749C29.4628 -0.443378 40.7879 1.15278 51.759 1.77351C62.7302 2.30557 73.6128 3.19232 84.584 3.72438C90.335 4.07908 96.1745 4.16776 101.925 4.43378C107.588 4.69981 113.604 3.54703 119.178 4.61114C119.444 4.69981 120.417 4.07908 119.709 3.99041Z" fill="white" stroke="white" stroke-width="2"/>
<path d="M36.6296 16.405C35.9218 17.2031 35.8333 17.4692 35.4794 18.7993C35.214 19.9521 34.9486 21.0162 34.6831 22.169C34.1523 24.4745 33.7099 26.7801 33.0021 28.997C31.498 33.6081 28.7552 37.8646 28.1358 42.7417C28.0474 43.1851 28.9321 42.9191 29.1091 42.8304C30.0823 42.2983 31.0556 41.2342 32.0288 40.7909C32.7366 40.4362 32.1173 40.0815 31.5864 40.3475C30.3478 40.8795 29.5515 41.855 28.4013 42.4757C28.7552 42.4757 29.0206 42.5644 29.3745 42.5644C29.9939 37.6872 32.8251 33.4308 34.2408 28.8196C34.9486 26.6027 35.3909 24.2085 35.9218 21.9916C36.3642 20.1294 37.1605 18.0899 37.249 16.139C37.249 16.0503 37.249 15.9617 37.1605 15.9617C37.072 15.9617 36.9835 15.873 36.8951 15.873C36.6296 15.7843 36.1872 15.873 36.0103 16.0503C35.9218 16.139 35.9218 16.2277 35.8333 16.2277C35.214 16.7597 36.3642 16.7597 36.6296 16.405Z" fill="white" stroke="white" stroke-width="2"/>
<path d="M24.7738 49.481C24.7738 49.3923 24.6854 49.3036 24.6854 49.3036C24.5084 48.9489 23.8891 49.1263 23.6236 49.3923C19.5537 53.3827 15.7492 58.5259 13.0064 63.4917C10.529 67.8368 7.96321 73.6894 8.14016 78.744C8.22864 81.8476 10.529 85.2173 13.9796 84.8626C17.2533 84.5079 19.1113 80.7835 19.1113 77.7685C19.1113 74.9309 17.4302 72.714 14.422 73.3347C10.6175 74.2215 8.93645 78.8326 7.34387 81.9363C4.68956 87.1682 3.27393 92.9321 1.8583 98.6073C1.062 101.711 0.0887559 104.992 0.0887559 108.273C0.000278957 111.111 1.23896 113.682 1.15048 116.431C1.15048 116.875 2.30068 116.697 2.30068 116.254C2.38916 112.795 0.973526 109.78 1.41591 106.233C1.8583 102.332 3.0085 98.5186 3.98174 94.7056C5.13194 90.4492 6.28215 86.2814 8.22864 82.291C9.02493 80.7835 9.82122 79.276 10.6175 77.7685C10.9714 77.1478 11.3253 76.1724 11.8562 75.729C13.6257 75.3743 15.3068 75.0196 17.0763 74.6649C17.4302 75.1083 17.6957 75.6403 17.7842 76.261C18.1381 77.6798 17.9611 79.1873 17.4302 80.5175C16.1916 83.7098 12.6525 84.7739 10.4406 81.8476C8.05168 78.6553 9.9097 73.6008 11.0599 70.2311C13.6257 62.5163 18.8459 54.8902 24.5969 49.215C24.243 49.215 23.8891 49.215 23.5352 49.3036C23.5352 49.3923 23.6236 49.481 23.6236 49.481C23.8006 50.1904 24.9508 49.747 24.7738 49.481Z" fill="white" stroke="white" stroke-width="2"/>
</g>
<defs>
<clipPath id="clip0_22_129">
<rect width="120.594" height="116.786" fill="white"/>
</clipPath>
</defs>
</svg>
