<svg width="40" height="41" viewBox="0 0 40 41" fill="none" xmlns="http://www.w3.org/2000/svg">
<path d="M35.6598 20.6171C35.6598 19.5637 35.5665 18.5637 35.4065 17.5904H20.3398V23.6037H28.9665C28.5798 25.5771 27.4465 27.2437 25.7665 28.3771V32.3771H30.9132C33.9265 29.5904 35.6598 25.4837 35.6598 20.6171Z" fill="#4285F4"/>
<path d="M20.3396 36.2571C24.6596 36.2571 28.2729 34.8171 30.9129 32.3771L25.7662 28.3771C24.3262 29.3371 22.4996 29.9238 20.3396 29.9238C16.1662 29.9238 12.6329 27.1104 11.3662 23.3104H6.05957V27.4304C8.68624 32.6571 14.0862 36.2571 20.3396 36.2571Z" fill="#34A853"/>
<path d="M11.3665 23.3104C11.0332 22.3504 10.8598 21.3237 10.8598 20.2571C10.8598 19.1904 11.0465 18.1637 11.3665 17.2037V13.0837H6.05984C4.96651 15.2437 4.33984 17.6704 4.33984 20.2571C4.33984 22.8437 4.96651 25.2704 6.05984 27.4304L11.3665 23.3104Z" fill="#FBBC05"/>
<path d="M20.3396 10.5904C22.6996 10.5904 24.8062 11.4037 26.4729 12.9904L31.0329 8.43041C28.2729 5.84375 24.6596 4.25708 20.3396 4.25708C14.0862 4.25708 8.68624 7.85708 6.05957 13.0837L11.3662 17.2037C12.6329 13.4037 16.1662 10.5904 20.3396 10.5904Z" fill="#EA4335"/>
</svg>
