<?xml version="1.0" encoding="utf-8"?>
<!-- Generator: Adobe Illustrator 22.1.0, SVG Export Plug-In . SVG Version: 6.00 Build 0)  -->
<svg version="1.1" id="Layer_1" xmlns="http://www.w3.org/2000/svg" xmlns:xlink="http://www.w3.org/1999/xlink" x="0px" y="0px"
	 viewBox="0 0 224 60" style="enable-background:new 0 0 224 60;" xml:space="preserve">
<style type="text/css">
	.st0{fill:#FFFFFF;}
</style>
<g id="international">
	<path class="st0" d="M69.8,35.8v6.6h-1.1v-6.6H69.8z"/>
	<path class="st0" d="M82.4,35.8h1.1v6.6h-0.9L79,37.7v4.7h-1.1v-6.6h1l3.4,4.5L82.4,35.8L82.4,35.8z"/>
	<path class="st0" d="M94.2,42.4h-1.1v-5.5h-2v-1.1h5.2v1.1h-2L94.2,42.4L94.2,42.4z"/>
	<path class="st0" d="M108.6,36.9H105v1.7h3.2v1H105v1.8h3.7v1h-4.8v-6.6h4.7C108.6,35.8,108.6,36.9,108.6,36.9z"/>
	<path class="st0" d="M120.5,42.4l-1.6-2.3h-1.4v2.3h-1.1v-6.6h2.9c0.4,0,0.7,0,1,0.1s0.5,0.2,0.8,0.4c0.2,0.2,0.4,0.4,0.5,0.7
		s0.2,0.5,0.2,0.9c0,0.3,0,0.5-0.1,0.7s-0.2,0.4-0.3,0.6c-0.1,0.2-0.3,0.3-0.5,0.4c-0.2,0.1-0.4,0.2-0.6,0.3l1.7,2.5L120.5,42.4
		L120.5,42.4z M120.2,37.1c-0.2-0.2-0.6-0.3-1-0.3h-1.6V39h1.7c0.4,0,0.7-0.1,1-0.3c0.2-0.2,0.4-0.5,0.4-0.8
		C120.5,37.6,120.4,37.3,120.2,37.1z"/>
	<path class="st0" d="M133.9,35.8h1.1v6.6h-0.9l-3.5-4.7v4.7h-1.1v-6.6h1l3.4,4.5V35.8L133.9,35.8z"/>
	<path class="st0" d="M149.2,42.4H148l-0.7-1.6h-3l-0.7,1.6h-1.2l2.8-6.6h1L149.2,42.4z M145.8,37.1l-1.1,2.6h2.2L145.8,37.1z"/>
	<path class="st0" d="M158.6,42.4h-1.1v-5.5h-2v-1.1h5.2v1.1h-2L158.6,42.4L158.6,42.4z"/>
	<path class="st0" d="M169.4,35.8v6.6h-1.1v-6.6H169.4z"/>
	<path class="st0" d="M183.7,40.4c-0.2,0.4-0.4,0.8-0.7,1.1s-0.7,0.6-1.1,0.7c-0.4,0.2-0.9,0.3-1.4,0.3s-0.9-0.1-1.4-0.3
		c-0.4-0.2-0.8-0.4-1.1-0.7s-0.5-0.7-0.7-1.1c-0.2-0.4-0.2-0.8-0.2-1.3s0.1-0.9,0.2-1.3c0.2-0.4,0.4-0.8,0.7-1.1s0.7-0.6,1.1-0.7
		c0.4-0.2,0.9-0.3,1.4-0.3s0.9,0.1,1.4,0.3c0.4,0.2,0.8,0.4,1.1,0.7s0.5,0.7,0.7,1.1c0.2,0.4,0.2,0.8,0.2,1.3
		C184,39.5,183.9,40,183.7,40.4z M182.6,38.2c-0.1-0.3-0.3-0.5-0.4-0.7c-0.2-0.2-0.4-0.4-0.7-0.5s-0.6-0.2-0.9-0.2
		c-0.3,0-0.6,0.1-0.9,0.2c-0.3,0.1-0.5,0.3-0.7,0.5s-0.3,0.5-0.4,0.7c-0.1,0.3-0.2,0.6-0.2,0.9c0,0.3,0.1,0.6,0.2,0.9
		c0.1,0.3,0.3,0.5,0.4,0.7c0.2,0.2,0.4,0.4,0.7,0.5s0.6,0.2,0.9,0.2s0.6-0.1,0.9-0.2c0.3-0.1,0.5-0.3,0.7-0.5s0.3-0.5,0.4-0.7
		c0.1-0.3,0.2-0.6,0.2-0.9S182.7,38.5,182.6,38.2z"/>
	<path class="st0" d="M196.2,35.8h1.1v6.6h-0.9l-3.5-4.7v4.7h-1.1v-6.6h1l3.4,4.5V35.8L196.2,35.8z"/>
	<path class="st0" d="M211.5,42.4h-1.2l-0.6-1.6h-3l-0.7,1.6h-1.2l2.8-6.6h1L211.5,42.4z M208.1,37.1l-1.1,2.6h2.2L208.1,37.1z"/>
	<path class="st0" d="M219,35.8h1.1v5.5h3.4v1H219V35.8z"/>
</g>
<g id="primary">
	<g>
		<path class="st0" d="M52.3,17.9c-9.5,3.1-17.5,8.5-23.8,14c-7,1.9-20.2,12-20.2,12c1-2.2,4.8-8.9,16.2-18.8
			C31.9,21.1,41.4,17.7,52.3,17.9L52.3,17.9z"/>
	</g>
	<g>
		<path class="st0" d="M58.6,35c-3.8,1.6-8.3,4.7-12.9,8.1l0,0c-7.4,2.1-24.7,11.5-27.5,13c1-1.3,5.2-6.5,10.8-12.3
			c0.3-0.3,0.6-0.6,0.8-0.9l0,0c1.4-0.7,3.1-1.4,4.9-2c0.1,0,0.2-0.1,0.3-0.1s0.2-0.1,0.3-0.1s0.2-0.1,0.3-0.1s0.2-0.1,0.4-0.1
			c0.2-0.1,0.3-0.1,0.5-0.2c0.1,0,0.2-0.1,0.3-0.1c0.3-0.1,0.5-0.2,0.8-0.3c1.1-0.3,2.2-0.7,3.3-1c0.1,0,0.2-0.1,0.3-0.1
			c1.6-0.4,3.2-0.9,4.7-1.2c0.1,0,0.2,0,0.3-0.1c0.5-0.1,1.1-0.3,1.6-0.4c0.6-0.1,1.2-0.3,1.8-0.4c0.1,0,0.3-0.1,0.4-0.1
			c0.1,0,0.3-0.1,0.4-0.1c0.2,0,0.3-0.1,0.5-0.1c0.1,0,0.2,0,0.3-0.1h0.1c0.2-0.1,0.5-0.1,0.7-0.2c0.1,0,0.1,0,0.2,0
			c0.1,0,0.2,0,0.2,0h0.1c0.2,0,0.3-0.1,0.5-0.1c0.1,0,0.2,0,0.2,0c0.2,0,0.4-0.1,0.6-0.1c0,0,0,0,0.1,0s0.2,0,0.3-0.1
			c0.1,0,0.2,0,0.3-0.1c0.1,0,0.2,0,0.3-0.1c0.4-0.1,0.8-0.2,1.1-0.2c0.1,0,0.1,0,0.2,0c0.5-0.1,0.9-0.2,1.3-0.3c0.1,0,0.2,0,0.2,0
			c0.2,0,0.4-0.1,0.5-0.1h0.1l0,0h0.1C58.5,35,58.6,35,58.6,35L58.6,35z"/>
	</g>
	<path class="st0" d="M20.1,10.6L37,0L18.2,7.1c0,0-4.1-5.7-6.1-5.1l0,0c0,0-0.3,0.1-0.4,0.3l0,0c-0.1,0.3-0.2,0.6-0.2,1
		c0,2.4,2.5,6.5,2.5,6.5L0,24.2l16.2-11.3l1.5,1.9L13,19.5l6.3-3.9L21,16l0.2-1.9l6.1-3.5l-6.4,2.1L20.1,10.6z"/>
</g>
<path class="st0" d="M18.2,56.1l0.1,0.1C18.2,56.1,18.2,56.1,18.2,56.1z"/>
<g>
	<path class="st0" d="M58.7,35c0,2.2-0.3,4.3-0.9,6.3c-8,2.9-26.3,16.5-29.4,18.7l0,0c-0.6-0.1-1.2-0.2-1.8-0.4
		c2.4-2.3,10.7-10.1,19.2-16.5l0,0C50.3,39.7,54.9,36.7,58.7,35C58.6,35,58.7,35,58.7,35z"/>
	<g id="seconday">
		<path class="st0" d="M43.1,11.3c-7.8,5.1-13.9,9.8-18.7,13.9C13,35.1,9.2,41.8,8.2,44c-0.6-1.6-1.1-3.2-1.4-5
			c-0.2-1.4-0.4-2.8-0.4-4.3c0-1.4,0.1-2.7,0.3-4C9.5,27,20.3,14,40,10.2C41.1,10.5,42.1,10.9,43.1,11.3z"/>
		<path class="st0" d="M56.7,25c-2.4,0.2-5.1,1.2-7.8,2.7c-0.1,0.1-0.2,0.1-0.3,0.2c-3.6,2-7.4,4.8-11,7.9c-0.4,0.4-0.9,0.7-1.3,1.1
			c-1.1,1-2.2,2-3.3,3.1c-0.3,0.3-0.5,0.5-0.8,0.8l0,0c-0.3,0.3-0.5,0.5-0.8,0.8c-0.5,0.5-1,1-1.5,1.5l0,0c-0.3,0.3-0.6,0.6-0.8,0.9
			c-5.6,5.8-9.8,11.1-10.8,12.3l-0.1-0.1c-2.1-1.4-4.1-3.1-5.7-5c-0.1-0.1-0.2-0.3-0.4-0.4c2.1-3.2,7.6-11.1,16.3-18.7
			c6.4-5.6,14.4-10.9,23.8-14c0.2,0.3,0.5,0.5,0.7,0.8C54.5,20.6,55.8,22.7,56.7,25z"/>
	</g>
</g>
<g id="lize">
	<path class="st0" d="M97.5,20.2v3.3h5.3v1.9h-5.3v3.5h6.8v2h-9.1V18.2h9.1v2H97.5z"/>
	<path class="st0" d="M68.7,18.2H71v10.7h6.5v2h-8.8V18.2z"/>
	<path class="st0" d="M79.2,18.2h2.3v12.7h-2.3V18.2z"/>
	<path class="st0" d="M93.5,28.9h-7.3l7.3-9.1v-1.6H83.2v2h7.3l-7.3,9.1v1.6h10.4h0.2v-2H93.5z"/>
	<path class="st0" d="M114.6,20.2h-4.1v-2H121v2h-4.1v10.7h-2.3V20.2z"/>
	<path class="st0" d="M130.9,30.9l-2.5-3.7c-0.1,0-0.3,0-0.5,0h-2.8v3.7h-2.3V18.2h5.1c1.1,0,2,0.2,2.8,0.5c0.8,0.4,1.4,0.9,1.8,1.6
		c0.4,0.7,0.6,1.5,0.6,2.4c0,1-0.2,1.8-0.7,2.5s-1.1,1.2-2,1.5l2.9,4.2C133.3,30.9,130.9,30.9,130.9,30.9z M130.1,20.8
		c-0.5-0.4-1.3-0.7-2.3-0.7h-2.7v5.1h2.7c1,0,1.8-0.2,2.3-0.7c0.5-0.4,0.8-1.1,0.8-1.9C130.8,21.9,130.6,21.3,130.1,20.8z"/>
	<path class="st0" d="M143.8,27.9h-6.2l-1.2,2.9H134l5.6-12.7h2.3l5.6,12.7H145L143.8,27.9z M143,26.1l-2.3-5.5l-2.3,5.5H143z"/>
	<path class="st0" d="M160,18.2v12.7h-1.9l-6.8-8.6v8.6H149V18.2h1.9l6.8,8.6v-8.6H160z"/>
	<path class="st0" d="M164.4,30.6c-0.9-0.3-1.6-0.6-2.1-1.1l0.8-1.8c0.5,0.4,1.1,0.7,1.9,1c0.7,0.3,1.5,0.4,2.2,0.4
		c0.9,0,1.6-0.2,2.1-0.5s0.7-0.7,0.7-1.2c0-0.4-0.1-0.7-0.4-0.9c-0.3-0.2-0.6-0.4-1-0.6c-0.4-0.1-0.9-0.3-1.6-0.5
		c-0.9-0.2-1.7-0.5-2.3-0.7s-1.1-0.6-1.5-1.1s-0.6-1.2-0.6-2c0-0.7,0.2-1.3,0.6-1.9c0.4-0.6,0.9-1,1.7-1.4s1.7-0.5,2.8-0.5
		c0.8,0,1.5,0.1,2.2,0.3c0.7,0.2,1.4,0.5,1.9,0.8L171,21c-0.5-0.3-1.1-0.6-1.7-0.7s-1.2-0.3-1.7-0.3c-0.9,0-1.6,0.2-2,0.5
		s-0.7,0.7-0.7,1.3c0,0.4,0.1,0.7,0.4,0.9c0.3,0.2,0.6,0.4,1,0.5s0.9,0.3,1.6,0.5c0.9,0.2,1.7,0.4,2.3,0.7c0.6,0.2,1.1,0.6,1.5,1.1
		s0.6,1.1,0.6,2c0,0.7-0.2,1.3-0.6,1.9s-0.9,1-1.7,1.4c-0.8,0.3-1.7,0.5-2.8,0.5C166.2,31.1,165.3,30.9,164.4,30.6z"/>
	<path class="st0" d="M182.4,18.7c0.8,0.4,1.4,0.9,1.8,1.6c0.4,0.7,0.6,1.5,0.6,2.4s-0.2,1.7-0.6,2.4c-0.4,0.7-1,1.2-1.8,1.6
		s-1.7,0.5-2.8,0.5h-2.8v3.7h-2.3V18.2h5.1C180.7,18.2,181.6,18.4,182.4,18.7z M181.8,24.6c0.5-0.4,0.8-1.1,0.8-1.9
		s-0.3-1.4-0.8-1.9c-0.5-0.4-1.3-0.7-2.3-0.7h-2.7v5h2.7C180.5,25.2,181.3,25,181.8,24.6z"/>
	<path class="st0" d="M189.8,30.2c-1-0.6-1.8-1.3-2.4-2.3c-0.6-1-0.9-2.1-0.9-3.3c0-1.2,0.3-2.3,0.9-3.3c0.6-1,1.4-1.8,2.4-2.3
		c1-0.6,2.2-0.8,3.4-0.8c1.3,0,2.4,0.3,3.4,0.8c1,0.6,1.8,1.3,2.4,2.3c0.6,1,0.9,2.1,0.9,3.4c0,1.2-0.3,2.4-0.9,3.4
		c-0.6,1-1.4,1.8-2.4,2.3c-1,0.6-2.2,0.8-3.4,0.8C191.9,31.1,190.8,30.8,189.8,30.2z M195.4,28.4c0.7-0.4,1.2-0.9,1.6-1.6
		c0.4-0.7,0.6-1.4,0.6-2.3c0-0.8-0.2-1.6-0.6-2.3c-0.4-0.7-0.9-1.2-1.6-1.6c-0.7-0.4-1.4-0.6-2.2-0.6s-1.6,0.2-2.2,0.6
		c-0.7,0.4-1.2,0.9-1.6,1.6c-0.4,0.7-0.6,1.4-0.6,2.3c0,0.8,0.2,1.6,0.6,2.3c0.4,0.7,0.9,1.2,1.6,1.6c0.7,0.4,1.4,0.6,2.2,0.6
		S194.7,28.8,195.4,28.4z"/>
	<path class="st0" d="M209.9,30.9l-2.5-3.7c-0.1,0-0.3,0-0.5,0h-2.8v3.7h-2.3V18.2h5.1c1.1,0,2,0.2,2.8,0.5c0.8,0.4,1.4,0.9,1.8,1.6
		c0.4,0.7,0.6,1.5,0.6,2.4c0,1-0.2,1.8-0.7,2.5s-1.1,1.2-2,1.5l2.9,4.2C212.3,30.9,209.9,30.9,209.9,30.9z M209.1,20.8
		c-0.5-0.4-1.3-0.7-2.3-0.7h-2.7v5.1h2.7c1,0,1.8-0.2,2.3-0.7c0.5-0.4,0.8-1.1,0.8-1.9C209.8,21.9,209.6,21.3,209.1,20.8z"/>
	<path class="st0" d="M217.1,20.2H213v-2h10.5v2h-4.1v10.7h-2.3L217.1,20.2L217.1,20.2z"/>
</g>
</svg>
