<svg width="140" height="139" viewBox="0 0 140 139" fill="none" xmlns="http://www.w3.org/2000/svg">
<path d="M63.7489 5.67497C65.4963 -0.676416 74.5037 -0.676416 76.2511 5.67497L82.1722 27.1962C83.2935 31.2719 87.9525 33.2017 91.6274 31.1127L111.032 20.0817C116.759 16.8262 123.128 23.1954 119.872 28.9221L108.841 48.3267C106.752 52.0016 108.682 56.6606 112.758 57.7819L134.279 63.703C140.631 65.4504 140.631 74.4578 134.279 76.2052L112.758 82.1263C108.682 83.2476 106.752 87.9066 108.841 91.5815L119.872 110.986C123.128 116.713 116.759 123.082 111.032 119.827L91.6274 108.796C87.9525 106.706 83.2935 108.636 82.1722 112.712L76.2511 134.233C74.5037 140.585 65.4963 140.585 63.7489 134.233L57.8278 112.712C56.7065 108.636 52.0475 106.706 48.3726 108.796L28.968 119.827C23.2413 123.082 16.8721 116.713 20.1276 110.986L31.1586 91.5815C33.2476 87.9066 31.3178 83.2476 27.2421 82.1263L5.72087 76.2052C-0.630518 74.4578 -0.630518 65.4504 5.72087 63.703L27.2421 57.7819C31.3178 56.6606 33.2476 52.0016 31.1586 48.3267L20.1276 28.9221C16.8721 23.1954 23.2413 16.8262 28.968 20.0817L48.3726 31.1127C52.0475 33.2017 56.7065 31.2719 57.8278 27.1962L63.7489 5.67497Z" fill="#72ADD7" fill-opacity="0.2"/>
</svg>
