<svg width="34" height="32" viewBox="0 0 34 32" fill="none" xmlns="http://www.w3.org/2000/svg">
<path d="M33.2546 6.58613C32.6104 5.76292 31.6079 5.2618 30.5699 5.2618H8.77001L8.08982 2.61294C7.69604 1.0739 6.33574 0 4.7609 0H1.10962C0.501115 0 0 0.501111 0 1.10957C0 1.71804 0.501134 2.21913 1.10962 2.21913H4.7609C5.29774 2.21913 5.76319 2.57718 5.9065 3.114L10.2736 20.5101C10.6674 22.0492 12.0277 23.1231 13.6026 23.1231H27.8852C29.4603 23.1231 30.8563 22.0492 31.2142 20.5101L33.8989 9.48542C34.1493 8.48318 33.9346 7.40953 33.2544 6.58613H33.2546ZM31.7155 8.98436L29.0308 20.0091C28.8877 20.5459 28.4223 20.9039 27.8852 20.9039H13.6025C13.0657 20.9039 12.6002 20.5459 12.4569 20.0091L9.34268 7.51679H30.5698C30.9279 7.51679 31.2857 7.69581 31.5005 7.98219C31.7155 8.26858 31.8228 8.62662 31.7155 8.98444L31.7155 8.98436Z" fill="#172066"/>
<path d="M14.3545 24.5547C12.314 24.5547 10.6318 26.237 10.6318 28.2772C10.6318 30.3176 12.3143 31.9997 14.3545 31.9997C16.395 31.9999 18.0774 30.3176 18.0774 28.2772C18.0774 26.237 16.395 24.5547 14.3545 24.5547ZM14.3545 29.7448C13.5313 29.7448 12.8868 29.1007 12.8868 28.2772C12.8868 27.454 13.531 26.8096 14.3545 26.8096C15.1778 26.8096 15.8222 27.4537 15.8222 28.2772C15.8222 29.0647 15.142 29.7448 14.3545 29.7448Z" fill="#172066"/>
<path d="M26.669 24.5547C24.6285 24.5547 22.9463 26.237 22.9463 28.2772C22.9463 30.3176 24.6287 31.9997 26.669 31.9997C28.7095 31.9997 30.3916 30.3174 30.3916 28.2772C30.3559 26.237 28.7095 24.5547 26.669 24.5547ZM26.669 29.7448C25.8457 29.7448 25.2013 29.1007 25.2013 28.2772C25.2013 27.454 25.8455 26.8096 26.669 26.8096C27.4922 26.8096 28.1367 27.4537 28.1367 28.2772C28.1367 29.0647 27.4565 29.7448 26.669 29.7448Z" fill="#172066"/>
</svg>
